ply
format ascii 1.0
comment PCL generated
element vertex 355
property float x
property float y
property float z
property uchar red
property uchar green
property uchar blue
element camera 1
property float view_px
property float view_py
property float view_pz
property float x_axisx
property float x_axisy
property float x_axisz
property float y_axisx
property float y_axisy
property float y_axisz
property float z_axisx
property float z_axisy
property float z_axisz
property float focal
property float scalex
property float scaley
property float centerx
property float centery
property int viewportx
property int viewporty
property float k1
property float k2
end_header
-35.57016 115.60302 1270 67 46 52
-33.347027 115.60302 1270 62 37 52
-31.123892 115.60302 1270 53 34 53
-28.900755 115.60302 1270 43 30 68
-35.57016 117.82616 1270 71 47 60
-33.347027 117.82616 1270 69 47 58
-31.123892 117.82616 1270 62 39 57
-28.900755 117.82616 1270 56 51 65
-26.677622 117.82616 1270 66 72 73
-33.347027 120.0493 1270 61 67 65
-44.637753 109.36249 1275 96 92 88
-44.637753 111.59438 1275 91 86 86
1.1159438 111.59438 1275 52 65 76
-44.637753 113.82626 1275 87 79 84
-41.289917 113.82626 1275 74 68 73
1.1159438 113.82626 1275 38 63 82
-44.637753 116.05815 1275 82 79 83
-41.289917 116.05815 1275 72 67 71
1.1159438 116.05815 1275 53 91 88
-46.86964 118.29004 1275 78 82 86
-44.637753 118.29004 1275 78 82 86
-41.289917 118.29004 1275 70 68 73
-46.86964 120.52193 1275 76 80 89
-44.637753 120.52193 1275 76 80 89
-42.405861 120.52193 1275 66 67 80
-46.86964 123.86976 1275 75 86 88
-44.637753 123.86976 1275 75 86 88
-35.710201 124.9857 1275 65 56 62
-33.478313 123.86976 1275 53 57 58
-31.246426 123.86976 1275 61 59 55
-29.014538 123.86976 1275 69 58 52
-26.78265 123.86976 1275 63 45 49
-24.550762 123.86976 1275 63 45 49
-21.20293 123.86976 1275 57 62 61
-17.855101 123.86976 1275 57 64 70
-15.623213 123.86976 1275 68 49 74
-13.391325 123.86976 1275 79 61 65
-11.159438 124.9857 1275 64 55 57
-49.101524 127.21759 1275 86 87 85
-46.86964 127.21759 1275 94 76 88
-44.637753 127.21759 1275 94 76 88
-41.289917 127.21759 1275 101 66 53
-37.942089 127.21759 1275 100 59 49
-35.710201 127.21759 1275 93 67 56
-33.478313 127.21759 1275 87 48 52
-31.246426 127.21759 1275 94 70 49
-29.014538 127.21759 1275 102 66 42
-26.78265 127.21759 1275 94 72 36
-24.550762 127.21759 1275 94 72 36
-17.855101 127.21759 1275 59 58 68
-15.623213 127.21759 1275 67 58 67
-13.391325 127.21759 1275 76 59 60
-11.159438 127.21759 1275 82 69 54
-8.9275503 127.21759 1275 89 38 57
-49.101524 129.44948 1275 85 85 81
-46.86964 129.44948 1275 112 75 73
-44.637753 129.44948 1275 112 75 73
-41.289917 129.44948 1275 135 107 57
-37.942089 129.44948 1275 123 101 51
-35.710201 129.44948 1275 122 107 51
-33.478313 129.44948 1275 121 95 49
-31.246426 129.44948 1275 128 109 47
-29.014538 129.44948 1275 135 99 48
-26.78265 129.44948 1275 125 114 48
-17.855101 129.44948 1275 61 61 57
-13.391325 129.44948 1275 74 77 76
-11.159438 129.44948 1275 101 125 87
-49.101524 131.68137 1275 91 80 77
-46.86964 131.68137 1275 109 90 58
-44.637753 131.68137 1275 109 90 58
-41.289917 131.68137 1275 126 124 61
-37.942089 131.68137 1275 123 120 54
-35.710201 131.68137 1275 120 111 47
-33.478313 131.68137 1275 118 117 46
-31.246426 131.68137 1275 119 109 46
-29.014538 131.68137 1275 121 109 53
-26.78265 131.68137 1275 114 113 61
-24.550762 131.68137 1275 114 113 61
-21.20293 131.68137 1275 96 98 38
-17.855101 131.68137 1275 66 53 46
-15.623213 131.68137 1275 68 60 62
-13.391325 131.68137 1275 70 57 91
-11.159438 131.68137 1275 98 106 121
-8.9275503 131.68137 1275 127 142 117
-6.6956625 131.68137 1275 126 135 114
-46.86964 133.91325 1275 106 77 71
-44.637753 133.91325 1275 106 77 71
-41.289917 133.91325 1275 116 99 68
-37.942089 133.91325 1275 124 99 63
-35.710201 133.91325 1275 119 103 59
-33.478313 133.91325 1275 115 98 59
-31.246426 133.91325 1275 111 104 59
-29.014538 133.91325 1275 108 97 62
-26.78265 133.91325 1275 103 109 65
-24.550762 133.91325 1275 103 109 65
-21.20293 133.91325 1275 92 75 54
-17.855101 133.91325 1275 72 60 59
-15.623213 133.91325 1275 69 62 67
-13.391325 133.91325 1275 66 71 81
-11.159438 133.91325 1275 96 103 95
-8.9275503 133.91325 1275 126 109 94
-6.6956625 133.91325 1275 127 123 93
-4.4637752 133.91325 1275 129 116 94
-46.86964 136.14514 1275 101 79 84
-44.637753 136.14514 1275 101 79 84
-41.289917 136.14514 1275 103 79 76
-37.942089 136.14514 1275 106 71 72
-35.710201 136.14514 1275 103 80 71
-33.478313 136.14514 1275 101 70 71
-31.246426 136.14514 1275 98 79 72
-29.014538 136.14514 1275 96 67 71
-26.78265 136.14514 1275 93 80 70
-24.550762 136.14514 1275 93 80 70
-21.20293 136.14514 1275 87 67 70
-17.855101 136.14514 1275 78 65 71
-15.623213 136.14514 1275 77 66 72
-13.391325 136.14514 1275 77 64 70
-11.159438 136.14514 1275 91 78 69
-8.9275503 136.14514 1275 105 69 71
-6.6956625 136.14514 1275 106 85 73
-4.4637752 136.14514 1275 106 69 75
-46.86964 138.37703 1275 97 83 86
-44.637753 138.37703 1275 97 83 86
-41.289917 138.37703 1275 91 81 81
-37.942089 138.37703 1275 89 79 79
-35.710201 138.37703 1275 88 79 78
-33.478313 138.37703 1275 87 78 78
-31.246426 138.37703 1275 85 78 78
-29.014538 138.37703 1275 84 77 77
-26.78265 138.37703 1275 83 77 76
-24.550762 138.37703 1275 83 77 76
-21.20293 138.37703 1275 83 76 75
-17.855101 138.37703 1275 84 75 75
-15.623213 138.37703 1275 86 73 74
-8.9275503 138.37703 1275 85 77 77
-6.6956625 138.37703 1275 84 79 80
-4.4637752 138.37703 1275 84 78 80
-46.86964 140.60892 1275 98 87 89
-44.637753 140.60892 1275 98 87 89
-41.289917 140.60892 1275 94 86 87
-37.942089 140.60892 1275 92 87 86
-35.710201 140.60892 1275 91 85 85
-33.478313 140.60892 1275 90 88 84
-31.246426 140.60892 1275 89 86 84
-29.014538 140.60892 1275 89 88 83
-26.78265 140.60892 1275 88 85 82
-24.550762 140.60892 1275 88 85 82
-21.20293 140.60892 1275 87 86 80
-17.855101 140.60892 1275 88 88 78
-15.623213 140.60892 1275 89 84 77
-11.159438 140.60892 1275 88 84 82
-8.9275503 140.60892 1275 87 85 84
-6.6956625 140.60892 1275 87 85 87
-4.4637752 140.60892 1275 87 86 86
-44.637753 142.84081 1275 100 90 87
-41.289917 142.84081 1275 98 89 90
-37.942089 142.84081 1275 96 89 88
-35.710201 142.84081 1275 94 89 85
-33.478313 142.84081 1275 93 90 84
-31.246426 142.84081 1275 93 91 82
-29.014538 142.84081 1275 94 91 81
-26.78265 142.84081 1275 92 89 80
-24.550762 142.84081 1275 92 89 80
-20.086987 142.84081 1275 91 90 82
-8.9275503 142.84081 1275 90 91 85
-6.6956625 142.84081 1275 90 92 89
-4.4637752 142.84081 1275 90 90 87
4.4812803 105.31008 1280 72 75 81
6.7219205 105.31008 1280 82 80 83
6.7219205 108.67104 1280 83 82 81
-47.05344 112.03201 1280 91 86 86
6.7219205 112.03201 1280 76 71 81
-49.294079 114.27264 1280 98 89 94
-47.05344 114.27264 1280 87 79 84
-47.05344 116.51328 1280 82 79 83
-11.2032 120.99457 1280 66 69 60
-8.9625607 120.99457 1280 52 69 64
-6.7219205 120.99457 1280 61 65 68
-4.4812803 120.99457 1280 70 72 67
-11.2032 123.23521 1280 64 55 57
-8.9625607 123.23521 1280 50 56 60
-6.7219205 123.23521 1280 64 64 64
-4.4812803 123.23521 1280 78 55 55
-8.9625607 125.47584 1280 50 56 60
-6.7219205 125.47584 1280 64 64 64
-4.4812803 125.47584 1280 78 55 55
-51.534721 134.4384 1280 115 99 98
-49.294079 134.4384 1280 98 84 84
-51.534721 136.67903 1280 116 102 100
-49.294079 136.67903 1280 100 83 92
-51.534721 138.91968 1280 117 101 102
-49.294079 138.91968 1280 102 89 94
-2.2406402 138.91968 1280 84 78 80
1.1203201 138.91968 1280 87 79 81
-51.534721 141.16032 1280 118 112 104
-49.294079 141.16032 1280 101 91 96
-2.2406402 141.16032 1280 87 86 86
1.1203201 141.16032 1280 88 84 85
-2.2406402 143.40097 1280 90 90 87
1.1203201 143.40097 1280 90 87 86
1.123821 98.896248 1284 48 42 69
4.4952841 98.896248 1284 66 73 83
6.7429266 98.896248 1284 83 75 84
8.9905682 98.896248 1284 71 76 86
11.238211 98.896248 1284 60 88 113
0 101.1439 1284 54 40 58
4.4952841 101.1439 1284 69 68 86
6.7429266 101.1439 1284 82 81 85
8.9905682 101.1439 1284 75 80 85
1.123821 103.39153 1284 60 55 63
4.4952841 103.39153 1284 72 75 81
6.7429266 103.39153 1284 82 80 83
8.9905682 103.39153 1284 79 81 86
11.238211 103.39153 1284 77 94 113
11.238211 105.63918 1284 77 94 113
8.9905682 107.88683 1284 88 89 88
4.4952841 139.35381 1284 87 82 81
-42.871498 101.53776 1289 82 82 84
-45.127895 103.79415 1289 86 77 90
-42.871498 103.79415 1289 85 81 84
15.794764 103.79415 1289 131 131 139
18.051157 103.79415 1289 131 131 139
20.307552 103.79415 1289 129 115 137
22.563948 103.79415 1289 127 110 131
-45.127895 106.05055 1289 86 77 90
-42.871498 106.05055 1289 85 81 84
15.794764 106.05055 1289 131 131 139
18.051157 106.05055 1289 131 131 139
20.307552 106.05055 1289 129 115 137
22.563948 106.05055 1289 127 110 131
-54.153473 119.58891 1289 117 115 109
-51.897076 119.58891 1289 102 86 87
-54.153473 121.84531 1289 119 121 113
-51.897076 121.84531 1289 103 94 93
4.5127892 124.10171 1289 75 61 65
6.7691841 124.10171 1289 69 57 67
1.1281973 126.35811 1289 81 42 50
4.5127892 126.35811 1289 75 61 65
6.7691841 126.35811 1289 69 57 67
1.1281973 128.6145 1289 104 59 34
4.5127892 128.6145 1289 104 71 61
6.7691841 128.6145 1289 103 44 60
4.5127892 130.8709 1289 134 126 86
6.7691841 130.8709 1289 137 109 88
6.7691841 133.12729 1289 138 146 117
-63.424118 99.666466 1294 152 107 126
-61.158974 99.666466 1294 114 106 150
-58.893822 99.666466 1294 76 128 153
-63.424118 101.93162 1294 149 145 143
-61.158974 101.93162 1294 112 138 141
-58.893822 101.93162 1294 76 169 155
-56.628677 101.93162 1294 76 117 169
13.590883 108.72707 1294 127 130 137
15.85603 108.72707 1294 160 160 133
18.121178 108.72707 1294 160 160 133
20.386324 108.72707 1294 133 120 129
13.590883 110.99221 1294 150 149 138
15.85603 110.99221 1294 190 160 136
20.386324 110.99221 1294 137 144 134
22.651474 110.99221 1294 84 98 113
13.590883 113.25735 1294 138 139 139
15.85603 113.25735 1294 172 190 139
18.121178 113.25735 1294 172 190 139
20.386324 113.25735 1294 137 140 140
22.651474 113.25735 1294 102 89 118
13.590883 115.52251 1294 127 119 124
15.85603 115.52251 1294 155 144 129
18.121178 115.52251 1294 155 144 129
20.386324 115.52251 1294 138 137 135
23.784046 115.52251 1294 121 122 120
13.590883 117.78764 1294 128 118 110
15.85603 117.78764 1294 139 130 120
18.121178 117.78764 1294 139 130 120
20.386324 117.78764 1294 136 136 130
22.651474 117.78764 1294 134 144 132
9.0605888 122.31795 1294 101 78 78
11.325737 121.18537 1294 135 109 100
13.590883 121.18537 1294 129 120 123
15.85603 121.18537 1294 124 128 125
18.121178 121.18537 1294 124 128 125
20.386324 121.18537 1294 135 136 127
9.0605888 124.58309 1294 99 59 68
11.325737 124.58309 1294 129 98 91
13.590883 124.58309 1294 127 123 114
15.85603 124.58309 1294 126 125 119
18.121178 124.58309 1294 126 125 119
20.386324 124.58309 1294 137 138 125
9.0605888 126.84824 1294 99 59 68
11.325737 126.84824 1294 129 98 91
13.590883 126.84824 1294 127 123 114
15.85603 126.84824 1294 126 125 119
18.121178 126.84824 1294 126 125 119
9.0605888 129.11339 1294 105 79 59
11.325737 129.11339 1294 108 94 79
13.590883 129.11339 1294 110 100 100
15.85603 129.11339 1294 112 110 112
9.0605888 131.37852 1294 112 120 91
11.325737 131.37852 1294 88 90 92
13.590883 131.37852 1294 93 75 94
9.0605888 133.64368 1294 111 111 123
11.325737 133.64368 1294 84 74 105
13.590883 133.64368 1294 99 88 88
11.325737 135.90883 1294 81 88 92
13.590883 135.90883 1294 105 93 85
11.325737 138.17398 1294 85 81 79
13.590883 138.17398 1294 107 98 83
15.85603 138.17398 1294 129 125 107
11.325737 140.43912 1294 89 87 83
13.590883 140.43912 1294 109 93 87
15.85603 140.43912 1294 129 125 108
11.325737 143.83685 1294 92 92 91
13.590883 143.83685 1294 119 110 95
15.85603 142.70427 1294 141 134 109
-56.847492 106.87329 1299 72 71 129
-54.573593 106.87329 1299 67 102 139
-56.847492 109.14719 1299 81 76 90
-54.573593 109.14719 1299 79 74 119
18.191196 129.61229 1299 112 110 112
20.465096 129.61229 1299 129 133 125
22.738997 129.61229 1299 146 146 129
25.012896 129.61229 1299 141 142 134
15.917297 131.88617 1299 98 109 113
18.191196 131.88617 1299 98 109 113
20.465096 131.88617 1299 121 141 132
22.738997 131.88617 1299 144 145 134
25.012896 131.88617 1299 141 147 136
15.917297 134.16006 1299 113 112 113
18.191196 134.16006 1299 113 112 113
20.465096 134.16006 1299 130 137 139
22.738997 134.16006 1299 147 149 138
25.012896 134.16006 1299 141 145 138
15.917297 136.43398 1299 129 119 110
18.191196 136.43398 1299 129 119 110
20.465096 136.43398 1299 140 146 135
22.738997 136.43398 1299 151 150 138
25.012896 136.43398 1299 140 151 140
18.191196 138.70787 1299 129 125 107
20.465096 138.70787 1299 140 144 132
22.738997 138.70787 1299 152 156 137
25.012896 138.70787 1299 140 150 143
18.191196 140.98178 1299 129 125 108
20.465096 140.98178 1299 141 150 130
22.738997 140.98178 1299 153 155 136
25.012896 140.98178 1299 140 160 143
18.191196 143.25568 1299 141 134 109
20.465096 143.25568 1299 148 147 128
22.738997 143.25568 1299 155 156 136
25.012896 143.25568 1299 143 145 144
18.191196 145.52957 1299 153 138 114
20.465096 145.52957 1299 155 148 129
22.738997 145.52957 1299 158 153 136
25.012896 145.52957 1299 145 158 143
18.191196 147.80347 1299 153 138 114
20.465096 147.80347 1299 155 148 129
22.738997 147.80347 1299 158 153 136
0 0 0 1 0 0 0 1 0 0 0 1 0 0 0 0 0 355 1 0 0
