ply
format ascii 1.0
comment PCL generated
element vertex 405
property float x
property float y
property float z
property uchar red
property uchar green
property uchar blue
element camera 1
property float view_px
property float view_py
property float view_pz
property float x_axisx
property float x_axisy
property float x_axisz
property float y_axisx
property float y_axisy
property float y_axisz
property float z_axisx
property float z_axisy
property float z_axisz
property float focal
property float scalex
property float scaley
property float centerx
property float centery
property int viewportx
property int viewporty
property float k1
property float k2
end_header
-40.147717 141.85527 1529 70 62 71
2.6765146 141.85527 1529 76 67 73
5.3530293 141.85527 1529 76 72 71
-40.147717 144.5318 1529 77 48 74
-37.471207 144.5318 1529 76 63 64
-34.794689 144.5318 1529 76 59 59
-8.0295439 144.5318 1529 76 69 64
-5.3530293 144.5318 1529 74 62 66
-2.6765146 144.5318 1529 74 62 66
0 144.5318 1529 75 65 69
2.6765146 144.5318 1529 76 43 75
5.3530293 144.5318 1529 74 64 81
8.0295439 144.5318 1529 72 61 68
-40.147717 147.2083 1529 84 89 65
-37.471207 147.2083 1529 82 77 60
-34.794689 147.2083 1529 81 86 54
-32.118176 147.2083 1529 84 83 49
-8.0295439 147.2083 1529 83 81 98
-5.3530293 147.2083 1529 77 93 97
-2.6765146 147.2083 1529 77 93 97
0 147.2083 1529 76 82 97
2.6765146 147.2083 1529 76 88 99
5.3530293 147.2083 1529 72 81 101
8.0295439 147.2083 1529 68 95 97
-40.147717 149.88483 1529 84 89 65
-37.471207 149.88483 1529 82 77 60
-34.794689 149.88483 1529 81 86 54
-32.118176 149.88483 1529 84 83 49
-29.44166 149.88483 1529 84 83 49
-8.0295439 149.88483 1529 83 81 98
-5.3530293 149.88483 1529 77 93 97
-2.6765146 149.88483 1529 77 93 97
0 149.88483 1529 76 82 97
2.6765146 149.88483 1529 76 88 99
5.3530293 149.88483 1529 72 81 101
-40.147717 152.56134 1529 108 137 57
-37.471207 152.56134 1529 107 117 56
-34.794689 152.56134 1529 105 125 49
-32.118176 152.56134 1529 108 115 43
0 152.56134 1529 114 130 126
2.6765146 152.56134 1529 113 146 124
5.3530293 152.56134 1529 113 132 122
-40.147717 155.23785 1529 133 105 69
-37.471207 155.23785 1529 131 130 69
-34.794689 155.23785 1529 130 113 64
-32.118176 155.23785 1529 133 129 59
0 155.23785 1529 152 144 104
2.6765146 155.23785 1529 151 131 103
5.3530293 155.23785 1529 154 152 103
-40.147717 157.91435 1529 110 73 81
-37.471207 157.91435 1529 109 90 82
-34.794689 157.91435 1529 109 71 78
-5.3530293 157.91435 1529 121 79 84
0 157.91435 1529 120 97 83
2.6765146 157.91435 1529 120 83 83
5.3530293 157.91435 1529 122 101 84
-37.471207 160.59087 1529 88 87 86
0 160.59087 1529 89 84 84
2.6765146 160.59087 1529 89 85 85
5.3530293 160.59087 1529 90 85 85
-40.147717 163.26741 1529 90 94 90
-37.471207 163.26741 1529 88 93 90
-34.794689 163.26741 1529 86 92 89
0 163.26741 1529 90 91 86
2.6765146 163.26741 1529 89 90 86
5.3530293 163.26741 1529 91 91 87
8.0295439 163.26741 1529 93 92 88
-40.147717 165.94391 1529 93 95 91
-37.471207 165.94391 1529 89 102 95
-34.794689 165.94391 1529 85 96 91
-32.118176 165.94391 1529 86 93 88
0 165.94391 1529 91 97 86
2.6765146 165.94391 1529 89 94 86
5.3530293 165.94391 1529 91 97 87
8.0295439 165.94391 1529 94 95 88
-40.147717 168.62042 1529 73 93 92
-37.471207 168.62042 1529 71 82 100
-34.794689 168.62042 1529 70 97 94
-32.118176 168.62042 1529 69 84 88
0 168.62042 1529 83 91 87
2.6765146 168.62042 1529 86 93 87
5.3530293 168.62042 1529 81 89 87
8.0295439 168.62042 1529 77 103 87
-37.471207 171.29694 1529 54 39 75
-34.794689 171.29694 1529 55 59 72
0 171.29694 1529 75 72 70
2.6765146 171.29694 1529 84 76 77
5.3530293 171.29694 1529 72 63 84
8.0295439 171.29694 1529 60 72 83
-37.471207 173.97345 1529 52 45 50
0 173.97345 1529 75 72 70
2.6765146 173.97345 1529 84 76 77
5.3530293 173.97345 1529 72 63 84
8.0295439 173.97345 1529 60 72 83
2.6765146 176.64996 1529 86 79 68
5.3530293 176.64996 1529 80 73 82
-34.953987 134.43842 1536 63 61 63
-32.265221 134.43842 1536 51 47 53
-29.576448 134.43842 1536 51 47 53
-2.6887681 134.43842 1536 64 46 69
-34.953987 137.12718 1536 60 56 63
-32.265221 137.12718 1536 45 38 57
-29.576448 137.12718 1536 45 38 57
-26.887682 137.12718 1536 30 41 57
-8.0663052 137.12718 1536 57 69 74
-5.3775363 137.12718 1536 64 66 74
-2.6887681 137.12718 1536 64 66 74
0 137.12718 1536 67 67 75
-34.953987 139.81595 1536 65 59 63
-32.265221 139.81595 1536 57 49 61
-29.576448 139.81595 1536 57 49 61
-26.887682 139.81595 1536 49 39 68
-24.198912 139.81595 1536 62 64 75
-18.821377 139.81595 1536 79 87 79
-13.443841 139.81595 1536 71 72 71
-10.755073 139.81595 1536 59 56 75
-8.0663052 139.81595 1536 63 68 80
-5.3775363 139.81595 1536 68 83 80
-2.6887681 139.81595 1536 68 83 80
0 139.81595 1536 70 76 80
-32.265221 142.5047 1536 69 63 58
-29.576448 142.5047 1536 69 63 58
-26.887682 142.5047 1536 68 57 64
-24.198912 142.5047 1536 71 70 71
-18.821377 142.5047 1536 80 76 79
-16.13261 142.5047 1536 87 79 73
-13.443841 142.5047 1536 77 87 67
-10.755073 142.5047 1536 68 69 69
-5.3775363 142.5047 1536 72 71 73
-2.6887681 142.5047 1536 72 71 73
-32.265221 145.19348 1536 76 66 55
-29.576448 145.19348 1536 76 66 55
-26.887682 145.19348 1536 77 59 61
-24.198912 145.19348 1536 77 64 67
-21.510145 145.19348 1536 77 41 73
-18.821377 145.19348 1536 81 66 80
-16.13261 145.19348 1536 85 57 71
-13.443841 145.19348 1536 82 69 63
-10.755073 145.19348 1536 78 66 63
-26.887682 147.88225 1536 87 88 55
-18.821377 147.88225 1536 82 90 67
-16.13261 147.88225 1536 84 67 64
-13.443841 147.88225 1536 86 68 60
-26.887682 150.57101 1536 87 88 55
-18.821377 150.57101 1536 82 90 67
-16.13261 150.57101 1536 84 67 64
-13.443841 150.57101 1536 86 68 60
10.755073 150.57101 1536 78 90 93
-29.576448 153.25978 1536 108 115 43
-26.887682 153.25978 1536 112 123 49
-24.198912 153.25978 1536 109 115 56
-21.510145 153.25978 1536 107 134 55
-18.821377 153.25978 1536 90 89 55
-16.13261 153.25978 1536 72 54 56
-13.443841 153.25978 1536 81 69 58
-10.755073 153.25978 1536 89 90 95
8.0663052 153.25978 1536 113 150 126
10.755073 153.25978 1536 99 115 131
-29.576448 155.94855 1536 133 129 59
-26.887682 155.94855 1536 137 110 62
-24.198912 155.94855 1536 136 116 65
-21.510145 155.94855 1536 135 101 64
-18.821377 155.94855 1536 98 79 64
-16.13261 155.94855 1536 61 68 66
-13.443841 155.94855 1536 75 65 68
-8.0663052 155.94855 1536 121 142 109
8.0663052 155.94855 1536 158 131 106
10.755073 155.94855 1536 121 136 110
-32.265221 158.63731 1536 110 91 75
-29.576448 158.63731 1536 110 91 75
-26.887682 158.63731 1536 112 74 74
-24.198912 158.63731 1536 111 88 74
-21.510145 158.63731 1536 109 75 73
-18.821377 158.63731 1536 91 78 73
-16.13261 158.63731 1536 73 74 75
-13.443841 158.63731 1536 81 72 78
8.0663052 158.63731 1536 125 86 86
10.755073 158.63731 1536 106 96 89
-32.265221 161.32608 1536 88 90 81
-29.576448 161.32608 1536 88 90 81
-26.887682 161.32608 1536 88 85 81
-24.198912 161.32608 1536 86 87 81
-21.510145 161.32608 1536 84 84 80
-18.821377 161.32608 1536 84 85 80
-16.13261 161.32608 1536 85 84 81
-13.443841 161.32608 1536 87 87 83
-8.0663052 161.32608 1536 89 87 89
10.755073 161.32608 1536 91 86 89
-32.265221 164.01486 1536 87 91 88
-29.576448 164.01486 1536 87 91 88
-26.887682 164.01486 1536 88 91 88
-24.198912 164.01486 1536 87 91 89
-21.510145 164.01486 1536 86 91 88
-18.821377 164.01486 1536 87 91 87
-16.13261 164.01486 1536 88 93 88
-13.443841 164.01486 1536 89 92 89
-10.755073 164.01486 1536 91 92 90
-8.0663052 164.01486 1536 91 91 92
-5.3775363 164.01486 1536 91 93 89
-2.6887681 164.01486 1536 91 93 89
10.755073 164.01486 1536 93 90 90
13.443841 164.01486 1536 94 93 94
-26.887682 166.70363 1536 88 93 87
-24.198912 166.70363 1536 88 97 87
-21.510145 166.70363 1536 88 94 87
-18.821377 166.70363 1536 89 96 87
-16.13261 166.70363 1536 91 95 87
-13.443841 166.70363 1536 91 96 88
-10.755073 166.70363 1536 92 94 89
-8.0663052 166.70363 1536 92 95 91
-5.3775363 166.70363 1536 93 96 88
-2.6887681 166.70363 1536 93 96 88
10.755073 166.70363 1536 95 91 89
13.443841 166.70363 1536 97 99 98
-45.709057 169.3924 1536 103 97 108
-43.02029 169.3924 1536 88 88 85
-29.576448 169.3924 1536 69 84 88
-26.887682 169.3924 1536 68 91 87
-24.198912 169.3924 1536 71 82 86
-21.510145 169.3924 1536 73 95 86
-18.821377 169.3924 1536 75 89 87
-16.13261 169.3924 1536 78 98 87
-13.443841 169.3924 1536 79 89 87
-10.755073 169.3924 1536 81 94 88
-8.0663052 169.3924 1536 80 90 90
-5.3775363 169.3924 1536 80 102 88
-2.6887681 169.3924 1536 80 102 88
-45.709057 172.08116 1536 107 101 103
-43.02029 172.08116 1536 80 69 74
-32.265221 172.08116 1536 52 55 69
-29.576448 172.08116 1536 52 55 69
-26.887682 172.08116 1536 49 60 68
-24.198912 172.08116 1536 54 46 67
-21.510145 172.08116 1536 59 66 69
-18.821377 172.08116 1536 62 70 71
-16.13261 172.08116 1536 65 69 70
-10.755073 172.08116 1536 71 72 70
-5.3775363 172.08116 1536 67 72 70
-45.709057 174.76993 1536 102 99 99
-43.02029 174.76993 1536 76 70 64
-32.265221 174.76993 1536 52 49 50
-29.576448 174.76993 1536 52 49 50
-26.887682 174.76993 1536 50 49 49
-21.510145 174.76993 1536 58 54 52
-18.821377 174.76993 1536 57 53 56
-16.13261 174.76993 1536 57 42 53
-13.443841 174.76993 1536 61 51 51
-10.755073 174.76993 1536 66 55 51
-8.0663052 174.76993 1536 69 71 71
-5.3775363 174.76993 1536 67 72 70
-37.789795 126.86575 1542 69 85 84
-35.090527 126.86575 1542 60 61 69
-37.789795 129.56502 1542 70 80 79
-35.090527 129.56502 1542 63 69 67
13.496356 140.36211 1542 104 127 107
16.195627 140.36211 1542 113 126 135
18.894897 140.36211 1542 122 127 138
21.594168 140.36211 1542 122 127 138
24.293442 140.36211 1542 135 136 142
-56.684696 143.06137 1542 133 149 130
-53.985424 143.06137 1542 133 149 130
13.496356 143.06137 1542 118 110 99
16.195627 143.06137 1542 116 124 132
18.894897 143.06137 1542 114 126 137
21.594168 143.06137 1542 114 126 137
24.293442 143.06137 1542 134 142 142
-59.383965 145.76065 1542 127 124 104
-56.684696 145.76065 1542 133 140 130
-53.985424 145.76065 1542 133 140 130
-51.286148 145.76065 1542 139 142 90
16.195627 145.76065 1542 111 112 129
18.894897 145.76065 1542 119 114 136
21.594168 145.76065 1542 119 114 136
24.293442 145.76065 1542 136 138 143
-59.383965 148.45992 1542 127 120 102
-56.684696 148.45992 1542 133 146 131
-53.985424 148.45992 1542 133 146 131
-51.286148 148.45992 1542 139 126 105
-48.586884 148.45992 1542 103 71 79
13.496356 148.45992 1542 88 97 100
16.195627 148.45992 1542 106 90 108
18.894897 148.45992 1542 124 116 125
21.594168 148.45992 1542 124 116 125
24.293442 148.45992 1542 138 149 143
-59.383965 151.15918 1542 127 120 102
-56.684696 151.15918 1542 133 146 131
-53.985424 151.15918 1542 133 146 131
-48.586884 151.15918 1542 103 71 79
-45.887611 151.15918 1542 67 79 75
13.496356 151.15918 1542 88 97 100
16.195627 151.15918 1542 106 90 108
18.894897 151.15918 1542 124 116 125
-59.383965 153.85846 1542 128 123 100
-56.684696 153.85846 1542 134 140 132
-53.985424 153.85846 1542 134 140 132
-48.586884 153.85846 1542 109 101 108
-45.887611 153.85846 1542 78 78 83
13.496356 153.85846 1542 86 87 109
16.195627 153.85846 1542 109 97 88
18.894897 153.85846 1542 133 113 115
21.594168 153.85846 1542 133 113 115
24.293442 153.85846 1542 143 141 143
-59.383965 156.55772 1542 130 117 101
-53.985424 156.55772 1542 135 148 134
-45.887611 156.55772 1542 89 88 87
13.496356 156.55772 1542 85 100 99
16.195627 156.55772 1542 113 100 89
18.894897 156.55772 1542 142 125 114
21.594168 156.55772 1542 142 125 114
24.293442 156.55772 1542 147 153 139
-59.383965 159.25699 1542 129 121 102
-56.684696 159.25699 1542 137 140 136
-53.985424 159.25699 1542 137 140 136
-48.586884 159.25699 1542 122 110 102
-45.887611 159.25699 1542 99 83 91
13.496356 159.25699 1542 88 77 89
16.195627 159.25699 1542 114 103 90
18.894897 159.25699 1542 141 136 113
21.594168 159.25699 1542 141 136 113
24.293442 159.25699 1542 147 151 136
-59.383965 161.95627 1542 129 122 100
-56.684696 161.95627 1542 139 150 132
-53.985424 161.95627 1542 139 150 132
-51.286148 161.95627 1542 149 135 118
-48.586884 161.95627 1542 129 105 104
-45.887611 161.95627 1542 110 93 94
13.496356 161.95627 1542 91 88 92
16.195627 161.95627 1542 115 99 94
18.894897 161.95627 1542 140 135 116
-59.383965 164.65555 1542 123 131 98
-56.684696 164.65555 1542 133 145 129
-53.985424 164.65555 1542 133 145 129
-51.286148 164.65555 1542 144 143 117
-48.586884 164.65555 1542 124 122 106
-45.887611 164.65555 1542 105 101 98
16.195627 164.65555 1542 121 114 99
18.894897 164.65555 1542 148 143 119
-56.684696 167.35483 1542 128 156 132
-53.985424 167.35483 1542 128 156 132
-51.286148 167.35483 1542 140 145 125
-48.586884 167.35483 1542 120 141 118
-45.887611 167.35483 1542 100 108 103
16.195627 167.35483 1542 126 124 108
-53.985424 170.05409 1542 126 143 135
-51.286148 170.05409 1542 143 142 133
-48.586884 170.05409 1542 123 130 131
16.195627 170.05409 1542 127 125 117
18.894897 170.05409 1542 162 159 125
-53.985424 172.75334 1542 124 154 135
-51.286148 172.75334 1542 147 146 134
-48.586884 172.75334 1542 127 141 133
13.496356 172.75334 1542 89 93 102
16.195627 172.75334 1542 128 128 121
18.894897 172.75334 1542 168 151 128
-51.286148 175.45262 1542 149 147 135
-48.586884 175.45262 1542 125 133 135
13.496356 175.45262 1542 89 93 102
16.195627 175.45262 1542 128 128 121
18.894897 175.45262 1542 168 151 128
21.594168 175.45262 1542 168 151 128
16.195627 178.15189 1542 127 129 126
18.894897 178.15189 1542 166 164 131
21.594168 178.15189 1542 166 164 131
16.269148 135.57623 1549 133 152 160
16.269148 138.28775 1549 110 129 147
-54.230495 140.99927 1549 133 136 130
-51.518967 140.99927 1549 140 136 92
-48.807442 140.99927 1549 107 84 55
-48.807442 143.7108 1549 107 62 53
-46.095921 143.7108 1549 76 67 65
27.115248 149.13387 1549 153 147 139
27.115248 151.84538 1549 153 147 139
29.826769 151.84538 1549 137 142 136
27.115248 154.5569 1549 153 152 139
29.826769 154.5569 1549 137 140 135
27.115248 159.97995 1549 154 155 136
29.826769 159.97995 1549 138 142 136
27.115248 162.69147 1549 155 155 137
21.692198 165.40302 1549 148 143 119
24.403721 165.40302 1549 153 155 139
27.115248 165.40302 1549 159 159 139
21.692198 168.11453 1549 156 145 122
24.403721 168.11453 1549 159 157 136
21.692198 170.82605 1549 162 159 125
24.403721 170.82605 1549 161 155 134
27.115248 170.82605 1549 161 151 125
29.826769 170.82605 1549 136 129 116
24.403721 173.53758 1549 163 154 135
27.115248 173.53758 1549 159 147 127
29.826769 173.53758 1549 130 126 120
27.115248 176.2491 1549 159 147 127
-57.199341 125.29379 1556 95 103 104
-54.475563 125.29379 1556 95 103 104
-57.199341 128.01758 1556 95 103 104
-54.475563 128.01758 1556 95 103 104
-51.751781 128.01758 1556 100 102 112
-49.028004 128.01758 1556 95 108 120
-49.028004 130.74136 1556 94 103 117
-46.30423 130.74136 1556 93 95 100
5.4720631 125.85744 1563 75 66 67
8.2080956 125.85744 1563 89 80 78
2.7360315 128.59349 1563 61 51 63
5.4720631 128.59349 1563 75 66 67
8.2080956 128.59349 1563 89 80 78
10.944126 128.59349 1563 85 85 89
0 0 0 1 0 0 0 1 0 0 0 1 0 0 0 0 0 405 1 0 0
