ply
format ascii 1.0
comment PCL generated
element vertex 415
property float x
property float y
property float z
property uchar red
property uchar green
property uchar blue
element camera 1
property float view_px
property float view_py
property float view_pz
property float x_axisx
property float x_axisy
property float x_axisz
property float y_axisx
property float y_axisy
property float y_axisz
property float z_axisx
property float z_axisy
property float z_axisz
property float focal
property float scalex
property float scaley
property float centerx
property float centery
property int viewportx
property int viewporty
property float k1
property float k2
end_header
5.3285222 162.51993 1522 92 91 93
5.3285222 165.18419 1522 92 93 91
7.9927835 165.18419 1522 92 95 94
5.3285222 167.84843 1522 82 87 89
7.9927835 167.84843 1522 75 100 93
5.3285222 170.51271 1522 72 62 82
7.9927835 170.51271 1522 59 69 85
5.3285222 173.17696 1522 72 62 82
7.9927835 173.17696 1522 59 69 85
-37.471207 131.14922 1529 68 89 75
-34.794689 131.14922 1529 60 66 66
-37.471207 133.82573 1529 65 69 73
-34.794689 133.82573 1529 58 51 66
-32.118176 133.82573 1529 48 44 60
-29.44166 133.82573 1529 48 44 60
-26.765148 133.82573 1529 39 34 51
-24.088633 133.82573 1529 50 43 43
-21.412117 133.82573 1529 60 55 39
-18.735603 133.82573 1529 70 67 35
-16.059088 133.82573 1529 80 101 55
-13.382574 133.82573 1529 61 64 76
-10.706059 133.82573 1529 43 38 70
-5.3530293 133.82573 1529 63 47 67
-2.6765146 133.82573 1529 63 47 67
0 133.82573 1529 64 60 70
-37.471207 136.50226 1529 63 64 70
-34.794689 136.50226 1529 56 50 65
-32.118176 136.50226 1529 43 37 60
-29.44166 136.50226 1529 43 37 60
-26.765148 136.50226 1529 31 40 61
-24.088633 136.50226 1529 53 55 62
-21.412117 136.50226 1529 76 71 59
-18.735603 136.50226 1529 82 77 56
-16.059088 136.50226 1529 89 84 65
-13.382574 136.50226 1529 69 52 74
-10.706059 136.50226 1529 50 52 65
-8.0295439 136.50226 1529 58 59 57
-2.6765146 136.50226 1529 67 66 65
0 136.50226 1529 65 63 74
2.6765146 136.50226 1529 63 67 72
5.3530293 136.50226 1529 68 58 71
-34.794689 139.17876 1529 61 49 64
-32.118176 139.17876 1529 54 48 61
-29.44166 139.17876 1529 54 48 61
-26.765148 139.17876 1529 47 37 71
-24.088633 139.17876 1529 61 65 81
-21.412117 139.17876 1529 75 100 79
-16.059088 139.17876 1529 90 106 75
-13.382574 139.17876 1529 76 77 73
-10.706059 139.17876 1529 62 61 61
-8.0295439 139.17876 1529 64 71 50
-5.3530293 139.17876 1529 67 95 64
-2.6765146 139.17876 1529 67 95 64
0 139.17876 1529 67 78 79
2.6765146 139.17876 1529 68 83 73
5.3530293 139.17876 1529 71 69 68
-37.471207 141.85527 1529 66 67 68
-34.794689 141.85527 1529 66 61 61
-32.118176 141.85527 1529 65 72 54
-29.44166 141.85527 1529 65 72 54
-26.765148 141.85527 1529 64 59 61
-24.088633 141.85527 1529 69 70 67
-21.412117 141.85527 1529 75 74 69
-16.059088 141.85527 1529 92 80 71
-13.382574 141.85527 1529 83 89 71
-10.706059 141.85527 1529 74 70 59
-8.0295439 141.85527 1529 71 72 47
-2.6765146 141.85527 1529 68 76 60
0 141.85527 1529 70 71 73
2.6765146 141.85527 1529 73 67 74
5.3530293 141.85527 1529 74 68 76
-34.794689 144.5318 1529 73 58 59
-32.118176 144.5318 1529 72 66 48
-29.44166 144.5318 1529 72 66 48
-26.765148 144.5318 1529 72 59 51
-8.0295439 144.5318 1529 72 65 45
-5.3530293 144.5318 1529 69 67 56
-2.6765146 144.5318 1529 69 67 56
0 144.5318 1529 67 66 68
2.6765146 144.5318 1529 66 47 76
5.3530293 144.5318 1529 67 64 84
8.0295439 144.5318 1529 69 57 75
-40.147717 147.2083 1529 79 90 66
-34.794689 147.2083 1529 81 83 52
-32.118176 147.2083 1529 80 76 47
-10.706059 147.2083 1529 76 76 76
-8.0295439 147.2083 1529 73 66 88
-5.3530293 147.2083 1529 71 89 92
-2.6765146 147.2083 1529 71 89 92
0 147.2083 1529 65 82 97
2.6765146 147.2083 1529 59 90 100
8.0295439 147.2083 1529 62 91 101
-42.824234 149.88483 1529 73 97 74
-40.147717 149.88483 1529 79 90 66
-37.471207 149.88483 1529 80 80 58
-34.794689 149.88483 1529 81 83 52
-32.118176 149.88483 1529 80 76 47
-8.0295439 149.88483 1529 73 66 88
-5.3530293 149.88483 1529 71 89 92
-2.6765146 149.88483 1529 71 89 92
0 149.88483 1529 65 82 97
2.6765146 149.88483 1529 59 90 100
-42.824234 152.56134 1529 92 97 68
-40.147717 152.56134 1529 108 135 57
-37.471207 152.56134 1529 109 115 46
-34.794689 152.56134 1529 109 121 46
-32.118176 152.56134 1529 108 112 46
-8.0295439 152.56134 1529 101 115 131
-5.3530293 152.56134 1529 112 144 128
-2.6765146 152.56134 1529 112 144 128
0 152.56134 1529 110 129 126
2.6765146 152.56134 1529 109 146 125
-40.147717 155.23785 1529 138 105 64
-37.471207 155.23785 1529 138 125 58
-34.794689 155.23785 1529 138 111 59
-8.0295439 155.23785 1529 128 147 111
-5.3530293 155.23785 1529 154 131 109
-2.6765146 155.23785 1529 154 131 109
0 155.23785 1529 156 144 108
2.6765146 155.23785 1529 159 134 105
-37.471207 157.91435 1529 111 91 70
-10.706059 157.91435 1529 96 72 85
-8.0295439 157.91435 1529 109 98 91
-5.3530293 157.91435 1529 122 89 90
-2.6765146 157.91435 1529 122 89 90
0 157.91435 1529 123 103 90
2.6765146 157.91435 1529 125 94 85
-8.0295439 160.59087 1529 90 84 90
-5.3530293 160.59087 1529 91 88 90
-2.6765146 160.59087 1529 91 88 90
0 160.59087 1529 91 88 91
2.6765146 160.59087 1529 91 90 89
-5.3530293 163.26741 1529 92 93 91
-2.6765146 163.26741 1529 92 93 91
0 163.26741 1529 92 92 92
2.6765146 163.26741 1529 92 91 92
-5.3530293 165.94391 1529 94 98 89
-2.6765146 165.94391 1529 94 98 89
0 165.94391 1529 93 99 89
2.6765146 165.94391 1529 93 94 90
-10.706059 173.97345 1529 66 56 54
-8.0295439 173.97345 1529 64 70 72
-5.3530293 173.97345 1529 62 75 72
-8.0295439 176.64996 1529 59 52 56
-18.821377 142.5047 1536 83 76 72
-24.198912 145.19348 1536 75 67 54
-21.510145 145.19348 1536 78 52 60
-18.821377 145.19348 1536 80 64 66
-16.13261 145.19348 1536 83 52 67
-13.443841 145.19348 1536 79 68 69
-24.198912 147.88225 1536 80 87 57
-21.510145 147.88225 1536 81 85 56
-18.821377 147.88225 1536 78 77 55
-16.13261 147.88225 1536 75 64 59
-29.576448 150.57101 1536 80 76 47
-26.887682 150.57101 1536 80 87 52
-24.198912 150.57101 1536 80 87 57
-21.510145 150.57101 1536 81 85 56
-18.821377 150.57101 1536 78 77 55
-16.13261 150.57101 1536 75 64 59
-13.443841 150.57101 1536 75 75 64
-10.755073 150.57101 1536 76 76 76
-56.46413 153.25978 1536 133 141 132
-53.775364 153.25978 1536 133 141 132
-51.086594 153.25978 1536 131 135 117
-45.709057 153.25978 1536 76 76 85
-29.576448 153.25978 1536 108 112 46
-26.887682 153.25978 1536 107 129 53
-24.198912 153.25978 1536 107 115 60
-21.510145 153.25978 1536 106 125 52
-16.13261 153.25978 1536 77 53 51
-13.443841 153.25978 1536 83 74 59
-10.755073 153.25978 1536 89 105 95
-56.46413 155.94855 1536 140 151 132
-53.775364 155.94855 1536 140 151 132
-51.086594 155.94855 1536 142 134 114
-48.397823 155.94855 1536 113 112 97
-45.709057 155.94855 1536 85 87 84
-43.02029 155.94855 1536 111 83 71
-32.265221 155.94855 1536 136 124 60
-29.576448 155.94855 1536 136 124 60
-26.887682 155.94855 1536 135 112 63
-24.198912 155.94855 1536 133 120 67
-21.510145 155.94855 1536 132 97 62
-16.13261 155.94855 1536 80 63 63
-10.755073 155.94855 1536 103 96 90
10.755073 155.94855 1536 126 127 106
13.443841 155.94855 1536 88 96 98
-59.152897 158.63731 1536 138 144 100
-56.46413 158.63731 1536 140 145 132
-53.775364 158.63731 1536 140 145 132
-51.086594 158.63731 1536 142 141 112
-45.709057 158.63731 1536 90 79 83
-43.02029 158.63731 1536 101 81 74
-40.33152 158.63731 1536 112 77 72
-32.265221 158.63731 1536 111 91 74
-26.887682 158.63731 1536 111 76 74
-24.198912 158.63731 1536 110 89 75
-21.510145 158.63731 1536 110 78 72
-16.13261 158.63731 1536 84 72 74
-13.443841 158.63731 1536 90 72 79
10.755073 158.63731 1536 108 94 81
13.443841 158.63731 1536 88 71 89
-59.152897 161.32608 1536 139 128 100
-56.46413 161.32608 1536 141 147 133
-53.775364 161.32608 1536 141 147 133
-51.086594 161.32608 1536 143 132 120
-43.02029 161.32608 1536 91 86 85
-40.33152 161.32608 1536 86 85 82
-37.642754 161.32608 1536 85 87 78
-34.953987 161.32608 1536 85 85 79
-32.265221 161.32608 1536 86 88 80
-24.198912 161.32608 1536 88 85 81
-13.443841 161.32608 1536 88 84 83
-10.755073 161.32608 1536 89 83 86
-59.152897 164.01486 1536 140 141 100
-56.46413 164.01486 1536 140 144 135
-53.775364 164.01486 1536 140 144 135
-51.086594 164.01486 1536 141 138 129
-45.709057 164.01486 1536 97 95 110
-43.02029 164.01486 1536 93 92 97
-40.33152 164.01486 1536 89 93 92
-34.953987 164.01486 1536 87 91 86
-32.265221 164.01486 1536 89 92 86
-13.443841 164.01486 1536 88 91 87
-56.46413 166.70363 1536 140 153 135
-53.775364 166.70363 1536 140 153 135
-51.086594 166.70363 1536 139 142 128
-45.709057 166.70363 1536 98 105 107
-43.02029 166.70363 1536 95 96 92
-10.755073 166.70363 1536 88 95 86
-8.0663052 166.70363 1536 91 97 89
-45.709057 169.3924 1536 96 94 104
-43.02029 169.3924 1536 83 87 87
-40.33152 169.3924 1536 70 92 93
-37.642754 169.3924 1536 72 81 99
-34.953987 169.3924 1536 74 92 89
-10.755073 169.3924 1536 77 98 84
-8.0663052 169.3924 1536 77 92 89
-2.6887681 169.3924 1536 78 106 87
-40.33152 172.08116 1536 47 63 78
-37.642754 172.08116 1536 53 42 78
-34.953987 172.08116 1536 60 59 72
-24.198912 172.08116 1536 56 48 70
-10.755073 172.08116 1536 67 74 69
-8.0663052 172.08116 1536 64 70 72
-5.3775363 172.08116 1536 62 75 72
-2.6887681 172.08116 1536 62 75 72
-40.33152 174.76993 1536 50 51 64
-37.642754 174.76993 1536 53 46 57
-34.953987 174.76993 1536 56 50 56
-37.642754 177.45869 1536 53 46 57
-34.953987 177.45869 1536 56 50 56
26.992712 132.26428 1542 106 88 89
29.691982 132.26428 1542 77 73 102
13.496356 134.96356 1542 106 118 121
16.195627 134.96356 1542 134 152 166
24.293442 134.96356 1542 143 130 87
26.992712 134.96356 1542 123 112 106
29.691982 134.96356 1542 106 113 126
13.496356 137.66283 1542 96 114 115
16.195627 137.66283 1542 115 134 150
18.894897 137.66283 1542 135 144 133
21.594168 137.66283 1542 135 144 133
24.293442 137.66283 1542 138 132 116
26.992712 137.66283 1542 141 133 123
29.691982 137.66283 1542 136 137 130
16.195627 140.36211 1542 118 130 135
18.894897 140.36211 1542 122 127 140
21.594168 140.36211 1542 122 127 140
24.293442 140.36211 1542 132 140 146
26.992712 140.36211 1542 143 152 140
29.691982 140.36211 1542 134 140 135
16.195627 143.06137 1542 121 127 128
18.894897 143.06137 1542 110 132 135
21.594168 143.06137 1542 110 132 135
24.293442 143.06137 1542 127 149 142
26.992712 143.06137 1542 145 148 139
29.691982 143.06137 1542 132 143 136
-56.684696 145.76065 1542 126 141 136
-53.985424 145.76065 1542 126 141 136
13.496356 145.76065 1542 112 130 94
16.195627 145.76065 1542 117 119 122
18.894897 145.76065 1542 123 125 130
21.594168 145.76065 1542 123 125 130
24.293442 145.76065 1542 135 142 139
26.992712 145.76065 1542 148 151 138
-59.383965 148.45992 1542 134 124 104
-56.684696 148.45992 1542 127 146 134
-53.985424 148.45992 1542 127 146 134
-51.286148 148.45992 1542 121 121 103
13.496356 148.45992 1542 93 96 100
16.195627 148.45992 1542 114 96 102
18.894897 148.45992 1542 136 122 123
-56.684696 151.15918 1542 127 146 134
-53.985424 151.15918 1542 127 146 134
13.496356 151.15918 1542 93 96 100
16.195627 151.15918 1542 114 96 102
18.894897 151.15918 1542 136 122 123
13.496356 153.85846 1542 90 78 107
16.195627 153.85846 1542 114 102 82
18.894897 153.85846 1542 139 126 117
16.195627 156.55772 1542 115 111 90
18.894897 156.55772 1542 142 134 118
-18.894897 159.25699 1542 97 74 70
16.195627 159.25699 1542 116 108 98
18.894897 159.25699 1542 144 141 119
-29.691982 161.95627 1542 86 88 80
-26.992712 161.95627 1542 88 85 80
-21.594168 161.95627 1542 88 84 79
-18.894897 161.95627 1542 88 83 78
-16.195627 161.95627 1542 88 83 80
16.195627 161.95627 1542 117 110 107
18.894897 161.95627 1542 147 140 121
-29.691982 164.65555 1542 89 92 86
-26.992712 164.65555 1542 91 93 87
-24.293442 164.65555 1542 91 91 88
-21.594168 164.65555 1542 91 92 87
-18.894897 164.65555 1542 89 90 86
-16.195627 164.65555 1542 88 94 86
16.195627 164.65555 1542 120 120 116
18.894897 164.65555 1542 152 147 124
-48.586884 167.35483 1542 118 137 122
-29.691982 167.35483 1542 92 96 83
-18.894897 167.35483 1542 91 94 82
16.195627 167.35483 1542 124 141 126
18.894897 167.35483 1542 158 150 129
-56.684696 170.05409 1542 139 146 135
-53.985424 170.05409 1542 139 146 135
-51.286148 170.05409 1542 142 140 128
-48.586884 170.05409 1542 119 127 121
-32.391254 170.05409 1542 72 84 80
-29.691982 170.05409 1542 72 84 80
-26.992712 170.05409 1542 70 94 82
-24.293442 170.05409 1542 75 83 85
-21.594168 170.05409 1542 80 96 81
-18.894897 170.05409 1542 76 90 78
-16.195627 170.05409 1542 73 101 79
16.195627 170.05409 1542 125 132 137
18.894897 170.05409 1542 161 159 135
21.594168 170.05409 1542 161 159 135
-56.684696 172.75334 1542 138 151 132
-53.985424 172.75334 1542 138 151 132
-51.286148 172.75334 1542 146 143 129
-48.586884 172.75334 1542 120 138 127
-32.391254 172.75334 1542 53 54 67
-29.691982 172.75334 1542 53 54 67
-18.894897 172.75334 1542 62 70 68
16.195627 172.75334 1542 127 143 138
18.894897 172.75334 1542 165 155 136
21.594168 172.75334 1542 165 155 136
24.293442 172.75334 1542 159 157 135
-56.684696 175.45262 1542 141 149 130
-53.985424 175.45262 1542 141 149 130
-51.286148 175.45262 1542 148 146 131
-48.586884 175.45262 1542 120 126 133
-45.887611 175.45262 1542 91 83 102
-43.188335 175.45262 1542 70 64 72
18.894897 175.45262 1542 165 155 136
21.594168 175.45262 1542 165 155 136
24.293442 175.45262 1542 159 157 135
-53.985424 178.15189 1542 141 149 130
-51.286148 178.15189 1542 148 146 131
-48.586884 178.15189 1542 120 126 133
-45.887611 178.15189 1542 91 83 102
21.594168 178.15189 1542 164 162 138
10.846099 130.15318 1549 92 91 90
13.557624 130.15318 1549 101 102 108
16.269148 130.15318 1549 132 141 127
18.980673 130.15318 1549 163 146 96
21.692198 130.15318 1549 163 146 96
10.846099 132.86472 1549 100 92 83
13.557624 132.86472 1549 116 121 115
18.980673 132.86472 1549 192 148 111
21.692198 132.86472 1549 192 148 111
-59.653538 138.28775 1549 129 117 99
-56.94202 138.28775 1549 130 145 121
-54.230495 138.28775 1549 130 145 121
-59.653538 140.99927 1549 127 128 107
-56.94202 140.99927 1549 127 138 136
-54.230495 140.99927 1549 127 138 136
-56.94202 143.7108 1549 125 151 136
-54.230495 143.7108 1549 125 151 136
24.403721 149.13387 1549 144 144 145
27.115248 149.13387 1549 152 147 140
29.826769 149.13387 1549 133 142 135
21.692198 151.84538 1549 136 122 123
24.403721 151.84538 1549 144 144 145
27.115248 151.84538 1549 152 147 140
29.826769 151.84538 1549 133 142 135
21.692198 154.5569 1549 139 126 117
24.403721 154.5569 1549 145 145 152
27.115248 154.5569 1549 152 153 142
29.826769 154.5569 1549 135 138 133
21.692198 157.26842 1549 142 134 118
24.403721 157.26842 1549 147 158 146
27.115248 157.26842 1549 152 150 140
21.692198 159.97995 1549 144 141 119
24.403721 159.97995 1549 150 154 141
27.115248 159.97995 1549 156 157 138
21.692198 162.69147 1549 147 140 121
24.403721 162.69147 1549 153 162 136
27.115248 162.69147 1549 160 154 133
29.826769 162.69147 1549 140 139 129
24.403721 165.40302 1549 154 156 132
27.115248 165.40302 1549 157 160 128
29.826769 165.40302 1549 136 141 124
24.403721 168.11453 1549 156 155 133
27.115248 168.11453 1549 154 151 125
29.826769 168.11453 1549 132 136 118
24.403721 170.82605 1549 157 156 134
27.115248 170.82605 1549 154 156 123
29.826769 170.82605 1549 128 128 112
27.115248 173.53758 1549 154 146 125
-54.475563 133.46513 1556 94 92 96
0 0 0 1 0 0 0 1 0 0 0 1 0 0 0 0 0 415 1 0 0
